HIERARCHY
ROOT Hips
{
  OFFSET -31.5692 30.0904 122.763
  CHANNELS 6 Xposition Yposition Zposition Zrotation Xrotation Yrotation
  JOINT LeftUpLeg
  {
    OFFSET 8.64259 1.95398 -2.38835
    CHANNELS 3 Zrotation Xrotation Yrotation
    JOINT LeftLeg
    {
      OFFSET 43.7702 0 0
      CHANNELS 3 Zrotation Xrotation Yrotation
      JOINT LeftFoot
      {
        OFFSET 40.6238 0 0
        CHANNELS 3 Zrotation Xrotation Yrotation
        JOINT LeftToeBase
        {
          OFFSET 12.7242 0 0
          CHANNELS 3 Zrotation Xrotation Yrotation
          End Site
          {
            OFFSET 0 0 0
          }
        }
      }
    }
  }
  JOINT RightUpLeg
  {
    OFFSET -8.2249 1.95398 -2.59336
    CHANNELS 3 Zrotation Xrotation Yrotation
    JOINT RightLeg
    {
      OFFSET 43.5653 0 0
      CHANNELS 3 Zrotation Xrotation Yrotation
      JOINT RightFoot
      {
        OFFSET 40.6238 0 0
        CHANNELS 3 Zrotation Xrotation Yrotation
        JOINT RightToeBase
        {
          OFFSET 12.7242 0 0
          CHANNELS 3 Zrotation Xrotation Yrotation
          End Site
          {
            OFFSET 0 0 0
          }
        }
      }
    }
  }
  JOINT Spine
  {
    OFFSET 0.165834 0.87714 6.61349
    CHANNELS 3 Zrotation Xrotation Yrotation
    JOINT Spine1
    {
      OFFSET 7.38963 1.71661e-005 0
      CHANNELS 3 Zrotation Xrotation Yrotation
      JOINT Spine2
      {
        OFFSET 11.9445 1.14441e-005 0
        CHANNELS 3 Zrotation Xrotation Yrotation
        JOINT Spine3
        {
          OFFSET 14.7254 4.19617e-005 0
          CHANNELS 3 Zrotation Xrotation Yrotation
          JOINT Spine4
          {
            OFFSET 10.9679 0 0
            CHANNELS 3 Zrotation Xrotation Yrotation
            JOINT RightShoulder
            {
              OFFSET 2.46616 -1.6653 3.69651
              CHANNELS 3 Zrotation Xrotation Yrotation
              JOINT RightArm
              {
                OFFSET 13.0012 0 0
                CHANNELS 3 Zrotation Xrotation Yrotation
                JOINT RightForeArm
                {
                  OFFSET 28.7848 1.62311e-005 0
                  CHANNELS 3 Zrotation Xrotation Yrotation
                  JOINT RightHand
                  {
                    OFFSET 26.5688 1.62095e-005 0
                    CHANNELS 3 Zrotation Xrotation Yrotation
                    End Site
                    {
                      OFFSET 0 0 0
                    }
                  }
                }
              }
            }
            JOINT LeftShoulder
            {
              OFFSET 2.38034 -1.29275 -3.7523
              CHANNELS 3 Zrotation Xrotation Yrotation
              JOINT LeftArm
              {
                OFFSET 16.3182 6.07031e-005 0
                CHANNELS 3 Zrotation Xrotation Yrotation
                JOINT LeftForeArm
                {
                  OFFSET 27.0901 0 0
                  CHANNELS 3 Zrotation Xrotation Yrotation
                  JOINT LeftHand
                  {
                    OFFSET 24.5451 1.51738e-005 0
                    CHANNELS 3 Zrotation Xrotation Yrotation
                    End Site
                    {
                      OFFSET 0 0 0
                    }
                  }
                }
              }
            }
            JOINT Neck
            {
              OFFSET 5.0226 -0.0266342 0
              CHANNELS 3 Zrotation Xrotation Yrotation
              JOINT Head
              {
                OFFSET 6.69364 2.86102e-005 0
                CHANNELS 3 Zrotation Xrotation Yrotation
                End Site
                {
                  OFFSET 0 0 0
                }
              }
            }
          }
        }
      }
    }
  }
}
MOTION
Frames:	17
Frame Time:	0.0416667
36.7053 9.48783 39.78 3.78245 -10.4768 -0.805155 -174.162 -9.61394 92.2862 -20.3354 37.5286 4.75256 89.7694 22.2198 2.39475 12.042 -10.2409 3.50947 172.967 -14.1722 89.8478 -13.023 -20.729 -3.09548 87.7112 -20.4671 -2.02061 40.8591 -5.63529 1.43061 0.0434254 6.35097 -89.9778 14.1721 0.096954 0.0311265 2.50119 0.0982265 0.0268126 -20.034 0.0831092 0.0588368 -0.0213592 0.0831125 0.0588172 95.6658 -15.4769 -99.3901 18.7553 -8.09401 18.1473 -6.04444 3.55093 -97.2868 89.851 -35.3269 -39.8282 -86.3624 -36.7364 81.8241 5.54895 6.29208 11.8575 122.723 14.9159 -82.3455 -3.83237 17.4916 -93.5147 41.621 -2.6232 -4.68179 -7.49652 -0.241211 3.86736 
36.6443 9.56626 39.807 3.71511 -10.5263 -0.884995 -174.235 -9.36517 92.203 -20.583 36.9202 4.75667 89.3666 21.481 1.55423 14.8108 -9.27048 4.67881 172.99 -14.2499 89.861 -12.8916 -21.1608 -3.15832 87.3072 -20.517 -2.69411 41.3784 -5.88553 1.7924 0.0886231 6.30524 -90.0003 14.2631 0.175472 -0.0249265 2.59219 0.174205 -0.0326395 -19.9431 0.174845 0.0289526 0.0695843 0.174849 0.0289717 95.7692 -14.8152 -99.3564 19.9716 -9.22959 18.8053 -7.476 3.24247 -95.613 100.222 -35.8492 -34.6545 -86.9406 -37.7596 81.0264 6.40556 6.76217 12.1361 124.441 17.0368 -83.67 -2.43148 15.8322 -92.8931 39.4318 -2.40473 -3.17502 -5.3393 -0.768494 2.4125 
36.6592 9.54757 39.7928 3.79415 -10.4963 -0.914926 -174.263 -9.3729 92.17 -20.5038 36.9305 4.74553 89.591 21.5741 1.38308 15.1783 -9.68431 5.88993 172.944 -14.2462 89.8423 -12.9325 -21.156 -3.14478 87.227 -20.5774 -2.99441 42.5242 -6.43857 2.87892 0.075208 6.29547 -89.999 14.283 0.149541 -0.018726 2.61203 0.148568 -0.0253056 -19.9232 0.14825 0.0270739 0.0894708 0.148254 0.0270702 95.2244 -15.1375 -100.674 19.736 -8.34475 19.9824 -6.17619 3.33153 -95.9957 101.263 -35.1906 -33.6713 -87.0722 -37.9547 80.8387 6.65171 6.74677 12.4133 125.54 16.8094 -83.8151 -1.92571 15.8376 -94.7922 39.197 -2.26395 -3.05842 -5.31404 -0.694666 2.10781 
36.6917 9.53285 39.8044 3.89061 -10.4625 -0.886607 -174.357 -9.33963 92.1316 -20.5574 37.0301 4.84445 89.6564 21.6378 1.40828 16.1616 -9.92907 7.50614 172.93 -14.3185 89.8771 -12.8448 -20.8932 -3.12067 87.1262 -20.5503 -3.08518 44.249 -7.22308 4.58677 0.0549975 6.32867 -89.9986 14.2165 0.109709 -0.0123096 2.54557 0.109063 -0.0171346 -19.9896 0.108339 0.0212255 0.0230247 0.108339 0.0212337 95.4006 -15.0664 -100.236 20.2102 -9.19438 19.5336 -8.28835 3.39127 -96.4514 97.9598 -36.7764 -36.601 -86.8038 -37.3778 81.1834 6.14348 6.15783 12.084 125.829 16.3426 -84.0062 -1.91304 15.8989 -95.0905 39.8927 -2.33002 -3.40291 -5.38902 -0.576631 2.62421 
36.6737 9.55034 39.8109 3.83965 -10.4119 -0.922104 -174.385 -9.33076 92.0841 -20.4592 36.7022 4.82459 89.7371 21.5838 1.18541 17.6766 -9.92663 9.3426 172.985 -14.2916 89.9409 -12.9066 -20.8435 -3.16814 86.9026 -20.5882 -3.54734 46.5725 -8.17957 6.76218 0.0691423 6.26237 -90.0086 14.3491 0.132778 -0.0358159 2.67819 0.131071 -0.0416362 -19.857 0.137395 0.00572931 0.15563 0.1374 0.00574023 95.037 -14.7321 -101.326 20.6775 -8.34295 20.7856 -3.73136 3.56546 -96.2962 102.855 -33.0335 -31.2824 -87.4483 -38.1725 80.2378 6.71973 6.76287 12.9533 120.541 16.3867 -84.6428 -8.93533 20.8883 -85.6131 38.4031 -2.17056 -2.94091 -4.67948 -0.674742 2.22141 
36.6535 9.54208 39.81 3.71849 -10.4108 -0.984094 -174.302 -9.32272 92.0927 -20.4732 37.161 4.75434 89.3998 21.6048 1.74033 19.9738 -9.51971 11.4828 173.01 -14.3887 89.9938 -12.89 -21.2401 -3.25322 86.3953 -20.6928 -4.62069 49.446 -9.2242 9.23403 0.0747977 6.2764 -90.0058 14.3211 0.145365 -0.0319949 2.65014 0.14381 -0.0383587 -19.8851 0.148253 0.0131671 0.127563 0.148256 0.0131658 95.1024 -16.0076 -100.657 18.2647 -8.92232 20.1246 -7.7917 3.28691 -96.0815 98.7421 -36.634 -36.0871 -87.2949 -38.1157 80.4876 6.46508 6.37186 12.8754 121.97 16.5569 -84.8017 -5.70847 17.9935 -86.6182 38.9683 -1.85985 -2.17034 -5.0574 -0.732507 1.46051 
36.6332 9.55499 39.8063 3.85717 -10.4031 -0.976181 -174.322 -9.26838 92.1095 -20.5234 37.2081 4.76452 89.3352 21.6053 1.82056 22.3566 -9.08545 13.8808 173.068 -14.4552 90.1358 -12.9184 -21.0291 -3.2699 86.0828 -20.7379 -5.27535 52.5 -10.1778 11.9553 0.0574551 6.27561 -90.0162 14.3227 0.105832 -0.047364 2.65179 0.103645 -0.0519782 -19.8834 0.115176 -0.0133681 0.129236 0.115171 -0.0133624 95.1314 -16.2488 -100.493 17.3754 -8.88443 19.9359 -6.13027 3.33311 -96.0326 100.572 -35.7411 -34.4718 -87.295 -38.3699 80.5415 6.6858 6.45729 12.9362 123.302 16.6178 -84.5356 -4.64956 18.023 -90.6889 39.1128 -1.61098 -1.62404 -5.27312 -0.753629 1.0407 
36.7162 9.54497 39.8066 3.91391 -10.2751 -0.995385 -174.517 -9.15635 91.9499 -20.5202 36.6961 4.85407 89.7298 21.5413 1.09736 24.3562 -9.15757 17.0425 172.99 -14.4845 90.1234 -12.7667 -21.1425 -3.24752 85.6248 -20.7907 -6.12384 55.7536 -11.0336 14.6892 0.0192503 6.24273 -90.0069 14.3884 0.0348107 -0.0186842 2.71747 0.0339472 -0.020221 -19.8177 0.0388115 -0.00737299 0.194963 0.038814 -0.00734867 94.7041 -16.7378 -101.398 16.6932 -8.60824 20.4408 -6.22461 3.27617 -96.1303 100.566 -36.0053 -34.6903 -87.0468 -38.3446 80.9668 7.18251 5.63829 12.8833 117.535 15.833 -86.0741 -10.6338 20.7491 -81.4421 38.7405 -1.70211 -2.22489 -4.90859 -0.558917 1.34081 
36.6998 9.51669 39.8201 3.86004 -10.3251 -0.987445 -174.33 -9.21306 92.052 -20.5519 37.1028 4.74612 89.4179 21.6266 1.75551 26.7209 -8.43339 19.2345 173.07 -14.7761 90.2687 -12.513 -21.1771 -3.33157 85.0949 -20.7981 -6.96661 59.0289 -11.7375 17.379 0.0691219 6.31805 -90.0229 14.2379 0.125726 -0.0634373 2.56697 0.122805 -0.0689306 -19.9683 0.138974 -0.0227199 0.0443856 0.138976 -0.0227344 95.6142 -15.5891 -99.4813 17.8338 -9.31067 19.2302 -5.46641 3.55059 -96.5274 100.074 -35.6396 -34.6723 -86.8191 -37.0014 81.0765 5.67065 4.89265 12.3922 117.267 15.7138 -86.1144 -10.5024 20.5983 -81.3902 40.2945 -1.86848 -2.08941 -5.65261 -0.760275 1.65185 
36.7069 9.52109 39.8119 3.92746 -10.2919 -0.977839 -174.489 -9.23694 91.9516 -20.5267 37.0241 4.88225 89.389 21.6537 1.84266 29.1109 -7.78964 21.9138 173.128 -14.8257 90.4115 -12.5225 -21.1665 -3.37365 84.6309 -20.837 -7.89042 62.2597 -12.2949 19.9087 0.0243215 6.26179 -90.0019 14.3502 0.0472667 -0.0104895 2.67926 0.0467603 -0.0125697 -19.8559 0.0482257 0.00420405 0.156758 0.0482323 0.00419482 94.6342 -17.341 -101.341 16.1841 -8.5453 20.369 -5.17836 3.35275 -96.4715 101.4 -35.0523 -33.534 -87.1825 -37.9535 80.6462 7.00008 5.00828 13.1625 116.945 15.771 -86.3912 -10.5818 20.4566 -80.9873 39.2579 -1.74971 -2.52638 -5.19669 -0.45754 1.78266 
36.7192 9.52781 39.8185 3.94864 -10.2327 -1.05665 -174.51 -9.16736 91.8799 -20.4828 36.9024 4.8213 89.5044 21.629 1.60984 31.0897 -7.29817 24.4821 173.131 -14.8935 90.4389 -12.413 -21.1269 -3.43529 84.2191 -20.8561 -8.62273 65.2475 -12.6914 22.1963 0.0295075 6.24686 -89.9988 14.3802 0.0590598 -0.0059271 2.70923 0.0587408 -0.0085228 -19.8259 0.0581078 0.0120967 0.186711 0.0581068 0.012095 95.0689 -16.3692 -100.607 17.3216 -8.86446 19.9812 -5.3064 3.42327 -96.4169 101.133 -35.1493 -33.7405 -87.0243 -37.7473 80.8771 6.66936 5.44722 13.0651 116.8 15.5425 -86.1649 -10.8483 20.6834 -80.9722 38.8638 -1.76714 -2.35395 -4.67869 -0.556575 1.61231 
36.7057 9.53645 39.8289 4.00628 -10.1063 -0.996766 -174.547 -8.92674 91.9463 -20.6234 36.5956 4.86201 89.8833 21.5306 0.842401 32.89 -6.86961 27.0999 173.305 -14.9819 90.6817 -12.1181 -20.9054 -3.49339 83.7469 -20.8081 -9.24097 67.9742 -12.96 24.236 0.0194778 6.23467 -89.9959 14.4044 0.0406847 0.0032541 2.73344 0.0407948 0.00146234 -19.8017 0.0378262 0.0153351 0.210893 0.0378248 0.0153393 94.6153 -17.0273 -101.559 16.4119 -8.21172 20.4704 -5.08208 3.32787 -96.5042 101.532 -35.0181 -33.448 -87.22 -37.7184 80.5259 6.6803 5.30496 13.3597 117.7 15.4249 -86.0339 -10.2995 20.7008 -82.279 38.4994 -1.97575 -2.95152 -4.35532 -0.465258 2.04936 
36.7341 9.52229 39.8236 3.92326 -10.1866 -1.04062 -174.512 -9.14854 91.8627 -20.4688 36.7993 4.82699 89.472 21.6077 1.62516 34.6658 -5.87901 28.3591 173.299 -15.2 90.7075 -11.9895 -21.249 -3.58818 83.2212 -20.8348 -10.2185 70.5192 -13.1775 25.8842 0.163261 6.53568 -90.1527 13.8028 0.249338 -0.339204 2.13183 0.234167 -0.349855 -20.4033 0.339756 -0.248584 -0.390639 0.33975 -0.248574 98.2442 -9.98311 -93.9943 22.3073 -10.7259 15.4698 -5.84509 4.3048 -97.4516 100.281 -35.4002 -34.3747 -85.0746 -35.0699 83.8014 2.34161 4.42561 8.92667 116.956 15.5699 -86.0812 -11.1671 21.0666 -80.6401 45.225 -0.860451 1.2485 -8.382 -1.45431 -0.49249 
36.6908 9.53278 39.825 3.9249 -10.1849 -1.07625 -174.495 -9.08433 91.8636 -20.5016 36.788 4.80309 89.4958 21.5908 1.54419 36.0213 -5.30354 29.942 173.437 -15.3085 90.8502 -11.8726 -21.177 -3.70666 82.8888 -20.8195 -10.7564 72.6088 -13.2902 27.2954 0.416655 7.03817 -90.3419 12.7996 0.663863 -0.76272 1.12858 0.629653 -0.791213 -21.4069 0.862396 -0.527935 -1.39433 0.862395 -0.527935 102.146 -0.847656 -83.1621 29.9135 -15.9476 7.93774 -5.96945 6.06689 -98.8788 102.183 -34.3118 -32.6006 -81.4081 -28.5991 89.7903 -7.59423 6.55385 1.01805 122.46 16.9984 -84.4647 -8.55494 20.5606 -83.935 53.9379 0.381469 4.99538 -12.8148 -2.6131 -1.83738 
36.718 9.54424 39.8284 3.87682 -10.119 -1.07764 -174.498 -9.01615 91.8498 -20.5157 36.8277 4.78041 89.5272 21.5496 1.42338 36.8546 -5.02065 31.1951 173.52 -15.4086 90.9181 -11.594 -21.2318 -3.78439 82.5864 -20.7901 -11.1203 74.2963 -13.3584 28.3771 0.597072 7.4484 -90.5218 11.9812 0.941107 -1.14268 0.310021 0.889913 -1.183 -22.2256 1.241 -0.807017 -2.21295 1.24101 -0.807026 103.812 6.39531 -74.3427 34.3205 -19.6662 1.92758 -6.81544 7.13279 -99.3271 101.634 -34.045 -32.6398 -78.516 -24.8869 95.4858 -13.4342 8.0137 -6.21439 119.941 17.3455 -84.4374 -10.3596 20.907 -80.4019 59.4071 1.53288 7.30419 -14.6735 -3.3525 -2.29813 
36.7272 9.542 39.8255 4.02826 -10.0713 -1.08547 -174.587 -8.86701 91.8078 -20.6983 36.6446 4.84328 89.7481 21.5717 1.12406 37.0552 -4.99524 31.634 173.587 -15.5431 90.993 -11.2796 -21.2349 -3.83383 82.3172 -20.7627 -11.4573 75.6087 -13.4038 29.1631 0.71206 7.78814 -90.6509 11.3031 1.11382 -1.40683 -0.36821 1.05084 -1.4545 -22.9037 1.48512 -1.00707 -2.89101 1.48512 -1.00708 104.654 10.2885 -67.6618 36.9043 -23.3409 -2.91907 -9.28923 8.02463 -99.4542 99.3931 -35.7878 -35.1109 -76.2249 -22.5686 100.461 -17.4638 12.4288 -12.0739 124.075 18.8776 -82.528 -8.72813 20.9798 -83.2752 63.061 2.44688 8.59728 -15.2276 -3.74637 -2.27353 
36.7479 9.54668 39.8284 4.1158 -10.1618 -1.00586 -174.497 -8.88968 91.9054 -20.807 37.1788 4.86281 89.5388 21.651 1.60612 37.2722 -4.8424 31.7399 173.698 -15.8419 91.1103 -10.8816 -21.2602 -3.89198 82.1252 -20.6968 -11.5158 76.4795 -13.4252 29.6819 0.787916 8.07339 -90.7666 10.7337 1.21568 -1.63608 -0.937777 1.14251 -1.68799 -23.4726 1.65114 -1.19513 -3.45989 1.65115 -1.19512 104.998 13.0891 -62.8541 38.4362 -25.4223 -6.94857 -10.6086 8.30256 -98.7836 98.8259 -36.3773 -35.8635 -74.5522 -20.629 104.378 -20.6944 14.3749 -16.2529 123.629 19.2389 -82.2579 -9.24934 20.9225 -81.5423 65.6497 3.17056 9.41146 -15.5363 -3.96764 -2.15481 
